<svg width="14" height="14" viewBox="0 0 14 14" fill="none" xmlns="http://www.w3.org/2000/svg">
<path d="M10.8348 0.832883C11.4792 0.188518 12.5239 0.188518 13.1683 0.832883C13.8127 1.47725 13.8127 2.52197 13.1683 3.16634L9.33502 6.99961L13.1683 10.8329C13.8127 11.4772 13.8127 12.522 13.1683 13.1663C12.5239 13.8107 11.4792 13.8107 10.8348 13.1663L7.00156 9.33306L3.16829 13.1663C2.52392 13.8107 1.4792 13.8107 0.834836 13.1663C0.190471 12.522 0.190471 11.4772 0.834836 10.8329L4.66811 6.99961L0.834837 3.16634C0.190472 2.52197 0.190472 1.47725 0.834837 0.832883C1.4792 0.188518 2.52392 0.188518 3.16829 0.832883L7.00156 4.66616L10.8348 0.832883Z" fill="#3D4248"/>
</svg>
