<svg width="16" height="16" viewBox="0 0 16 16" fill="none" xmlns="http://www.w3.org/2000/svg">
<path fill-rule="evenodd" clip-rule="evenodd" d="M9.49935 3.66667C9.49935 2.47005 10.4694 1.5 11.666 1.5C12.8626 1.5 13.8327 2.47005 13.8327 3.66667C13.8327 4.86328 12.8626 5.83333 11.666 5.83333C10.4694 5.83333 9.49935 4.86328 9.49935 3.66667ZM11.666 2.5C11.0217 2.5 10.4993 3.02234 10.4993 3.66667C10.4993 4.31099 11.0217 4.83333 11.666 4.83333C12.3103 4.83333 12.8327 4.31099 12.8327 3.66667C12.8327 3.02234 12.3103 2.5 11.666 2.5Z" fill="#444444"/>
<path fill-rule="evenodd" clip-rule="evenodd" d="M2.16602 8C2.16602 6.80339 3.13607 5.83333 4.33268 5.83333C5.52929 5.83333 6.49935 6.80339 6.49935 8C6.49935 9.19661 5.52929 10.1667 4.33268 10.1667C3.13607 10.1667 2.16602 9.19661 2.16602 8ZM4.33268 6.83333C3.68836 6.83333 3.16602 7.35568 3.16602 8C3.16602 8.64432 3.68836 9.16667 4.33268 9.16667C4.97701 9.16667 5.49935 8.64432 5.49935 8C5.49935 7.35568 4.97701 6.83333 4.33268 6.83333Z" fill="#444444"/>
<path fill-rule="evenodd" clip-rule="evenodd" d="M10.427 4.26572C10.5701 4.5019 10.4947 4.80936 10.2585 4.95245L6.03813 7.50942C5.80196 7.65251 5.4945 7.57705 5.35141 7.34087C5.20832 7.10469 5.28378 6.79723 5.51996 6.65414L9.74032 4.09718C9.9765 3.95409 10.284 4.02955 10.427 4.26572Z" fill="#444444"/>
<path fill-rule="evenodd" clip-rule="evenodd" d="M5.34859 8.60029C5.48907 8.36255 5.79568 8.28371 6.03342 8.42419L10.4802 11.0519C10.718 11.1923 10.7968 11.4989 10.6563 11.7367C10.5158 11.9744 10.2092 12.0533 9.97148 11.9128L5.52468 9.28512C5.28695 9.14463 5.20811 8.83802 5.34859 8.60029Z" fill="#444444"/>
<path fill-rule="evenodd" clip-rule="evenodd" d="M11.666 11.1667C11.0217 11.1667 10.4993 11.689 10.4993 12.3333C10.4993 12.9777 11.0217 13.5 11.666 13.5C12.3103 13.5 12.8327 12.9777 12.8327 12.3333C12.8327 11.689 12.3103 11.1667 11.666 11.1667ZM9.49935 12.3333C9.49935 11.1367 10.4694 10.1667 11.666 10.1667C12.8626 10.1667 13.8327 11.1367 13.8327 12.3333C13.8327 13.5299 12.8626 14.5 11.666 14.5C10.4694 14.5 9.49935 13.5299 9.49935 12.3333Z" fill="#444444"/>
</svg>
