<svg width="22" height="22" viewBox="0 0 22 22" fill="none" xmlns="http://www.w3.org/2000/svg">
<path d="M3.375 16C5.625 16 7.3125 13.75 9 13.75L9 9.25C7.3125 9.25 5.625 7 3.375 7C1.125 7 -2.95052e-07 9.25 -1.96701e-07 11.5C-9.83506e-08 13.75 1.125 16 3.375 16Z" fill="#0094FF"/>
<path d="M6 3.375C6 5.625 8.5 7.3125 8.5 9H13.5C13.5 7.3125 16 5.625 16 3.375C16 1.125 13.5 0 11 0C8.5 0 6 1.125 6 3.375Z" fill="#0094FF"/>
<path d="M18.625 7C16.375 7 14.6875 9.25 13 9.25L13 13.75C14.6875 13.75 16.375 16 18.625 16C20.875 16 22 13.75 22 11.5C22 9.25 20.875 7 18.625 7Z" fill="#0094FF"/>
<path d="M16 18.625C16 16.375 13.5 14.6875 13.5 13L8.5 13C8.5 14.6875 6 16.375 6 18.625C6 20.875 8.5 22 11 22C13.5 22 16 20.875 16 18.625Z" fill="#0094FF"/>
<path d="M11.0145 14.9854C8.79737 14.9934 6.99344 13.2026 6.98536 10.9855C6.97727 8.7683 8.76808 6.96437 10.9853 6.95628C13.2024 6.9482 15.0063 8.73901 15.0144 10.9562C15.0225 13.1733 13.2317 14.9773 11.0145 14.9854Z" fill="#0038FF"/>
</svg>
