<svg width="195" height="26" viewBox="0 0 195 26" fill="none" xmlns="http://www.w3.org/2000/svg">
<path d="M1.25 19.775V3.6C1.25 3.36667 1.2 3.15 1.1 2.95C1 2.73333 0.825 2.575 0.575 2.475L5.675 0.974999V1.725H14.575V4.15H5.675V9.35H14.2V11.775H5.675V18.175C5.675 19.2417 5.10833 19.775 3.975 19.775H1.25ZM20.76 0.974999V4.85H16.46V0.974999H20.76ZM16.46 19.775V9.35C16.46 9.11667 16.41 8.9 16.31 8.7C16.21 8.48333 16.035 8.325 15.785 8.225L20.76 6.725V18.175C20.76 19.2417 20.1933 19.775 19.06 19.775H16.46ZM27.5715 5.85V7C28.1048 6.76667 28.6548 6.58333 29.2215 6.45C29.7882 6.31667 30.3632 6.25 30.9465 6.25C32.0465 6.25 32.9548 6.40833 33.6715 6.725C34.4048 7.025 34.9798 7.41667 35.3965 7.9C35.8132 8.36667 36.1048 8.89167 36.2715 9.475C36.4382 10.0583 36.5215 10.625 36.5215 11.175V18.175C36.5215 19.2417 35.9548 19.775 34.8215 19.775H32.2215V11.325C32.2215 10.475 32.0298 9.825 31.6465 9.375C31.2632 8.90833 30.5965 8.675 29.6465 8.675C29.2632 8.675 28.8882 8.73333 28.5215 8.85C28.1715 8.95 27.8548 9.06667 27.5715 9.2V18.175C27.5715 19.2417 27.0048 19.775 25.8715 19.775H23.2715V8.475C23.2715 8.24167 23.2215 8.025 23.1215 7.825C23.0215 7.60833 22.8465 7.45 22.5965 7.35L27.5715 5.85ZM53.1936 18.175C53.1936 19.2417 52.6269 19.775 51.4936 19.775H48.8936V18.65C48.4102 19.0667 47.8186 19.4167 47.1186 19.7C46.4352 19.9833 45.7102 20.125 44.9436 20.125C43.9436 20.125 43.0602 19.95 42.2936 19.6C41.5269 19.25 40.8769 18.7583 40.3436 18.125C39.8269 17.5083 39.4352 16.7667 39.1686 15.9C38.9019 15.0167 38.7686 14.0583 38.7686 13.025C38.7686 12.0417 38.9102 11.1417 39.1936 10.325C39.4936 9.49167 39.9102 8.775 40.4436 8.175C40.9936 7.575 41.6436 7.10833 42.3936 6.775C43.1602 6.425 44.0186 6.25 44.9686 6.25C45.6519 6.25 46.3352 6.35 47.0186 6.55C47.7019 6.75 48.3269 7.01667 48.8936 7.35V3.6C48.8936 3.36667 48.8436 3.15 48.7436 2.95C48.6436 2.73333 48.4686 2.575 48.2186 2.475L53.1936 0.974999V18.175ZM46.2686 8.675C45.8519 8.675 45.4519 8.76667 45.0686 8.95C44.6852 9.11667 44.3436 9.375 44.0436 9.725C43.7436 10.075 43.5019 10.5167 43.3186 11.05C43.1519 11.5833 43.0686 12.2083 43.0686 12.925C43.0686 13.8083 43.1602 14.5583 43.3436 15.175C43.5269 15.775 43.7602 16.2667 44.0436 16.65C44.3436 17.0167 44.6686 17.2833 45.0186 17.45C45.3852 17.6167 45.7436 17.7 46.0936 17.7C46.7102 17.7 47.2436 17.5917 47.6936 17.375C48.1602 17.1417 48.5602 16.8833 48.8936 16.6V9.4C48.5602 9.21667 48.1602 9.05 47.6936 8.9C47.2269 8.75 46.7519 8.675 46.2686 8.675ZM59.9934 0.974999V4.85H55.6934V0.974999H59.9934ZM55.6934 19.775V9.35C55.6934 9.11667 55.6434 8.9 55.5434 8.7C55.4434 8.48333 55.2684 8.325 55.0184 8.225L59.9934 6.725V18.175C59.9934 19.2417 59.4267 19.775 58.2934 19.775H55.6934ZM66.8049 5.85V7C67.3382 6.76667 67.8882 6.58333 68.4549 6.45C69.0216 6.31667 69.5966 6.25 70.1799 6.25C71.2799 6.25 72.1882 6.40833 72.9049 6.725C73.6382 7.025 74.2132 7.41667 74.6299 7.9C75.0465 8.36667 75.3382 8.89167 75.5049 9.475C75.6716 10.0583 75.7549 10.625 75.7549 11.175V18.175C75.7549 19.2417 75.1882 19.775 74.0549 19.775H71.4549V11.325C71.4549 10.475 71.2632 9.825 70.8799 9.375C70.4965 8.90833 69.8299 8.675 68.8799 8.675C68.4965 8.675 68.1215 8.73333 67.7549 8.85C67.4049 8.95 67.0882 9.06667 66.8049 9.2V18.175C66.8049 19.2417 66.2382 19.775 65.1049 19.775H62.5049V8.475C62.5049 8.24167 62.4549 8.025 62.3549 7.825C62.2549 7.60833 62.0799 7.45 61.8299 7.35L66.8049 5.85ZM90.852 7.775C90.9686 7.59167 90.9686 7.43333 90.852 7.3C90.7353 7.15 90.5686 7.075 90.352 7.075C90.0686 7.075 89.7686 7.19167 89.452 7.425C90.052 7.80833 90.5436 8.29167 90.927 8.875C91.3103 9.45833 91.502 10.1667 91.502 11C91.502 11.7333 91.3186 12.4 90.952 13C90.5853 13.5833 90.0853 14.0833 89.452 14.5C88.8353 14.9 88.1103 15.2083 87.277 15.425C86.4436 15.6417 85.552 15.75 84.602 15.75C84.3186 15.75 84.027 15.7583 83.727 15.775C83.427 15.775 83.152 15.8 82.902 15.85C82.6686 15.8833 82.477 15.9417 82.327 16.025C82.177 16.0917 82.102 16.1833 82.102 16.3C82.102 16.5167 82.252 16.7 82.552 16.85C82.852 16.9833 83.252 17.1 83.752 17.2C84.252 17.3 84.8186 17.3917 85.452 17.475C86.0853 17.5583 86.727 17.6583 87.377 17.775C88.0436 17.8917 88.6936 18.025 89.327 18.175C89.9603 18.3417 90.527 18.5583 91.027 18.825C91.527 19.0917 91.927 19.4083 92.227 19.775C92.527 20.1583 92.677 20.6167 92.677 21.15C92.677 21.95 92.4436 22.6333 91.977 23.2C91.527 23.7833 90.9353 24.2583 90.202 24.625C89.4853 24.9917 88.677 25.2583 87.777 25.425C86.877 25.5917 85.9853 25.675 85.102 25.675C84.302 25.675 83.4686 25.5917 82.602 25.425C81.7353 25.275 80.9436 25.0333 80.227 24.7C79.5103 24.3833 78.9186 23.975 78.452 23.475C77.9853 22.9917 77.752 22.4083 77.752 21.725C77.752 21.3083 77.8186 20.925 77.952 20.575C78.102 20.2417 78.2853 19.9417 78.502 19.675C78.7353 19.4083 78.9853 19.175 79.252 18.975C79.5353 18.7917 79.802 18.6333 80.052 18.5C79.452 18.2167 79.002 17.9333 78.702 17.65C78.4186 17.3667 78.277 17.0083 78.277 16.575C78.277 16.1083 78.5103 15.7167 78.977 15.4C79.4436 15.0667 80.002 14.8083 80.652 14.625C79.902 14.325 79.277 13.8583 78.777 13.225C78.2936 12.5917 78.052 11.85 78.052 11C78.052 10.1333 78.252 9.4 78.652 8.8C79.052 8.2 79.5686 7.71667 80.202 7.35C80.852 6.96667 81.577 6.69167 82.377 6.525C83.177 6.34167 83.977 6.25 84.777 6.25C85.3603 6.25 85.9436 6.3 86.527 6.4C87.127 6.48333 87.6936 6.625 88.227 6.825C88.727 6.24167 89.2936 5.8 89.927 5.5C90.5603 5.18333 91.1603 5.025 91.727 5.025C92.2936 5.025 92.7436 5.19167 93.077 5.525C93.427 5.84167 93.602 6.24167 93.602 6.725C93.602 7.25833 93.4686 7.65833 93.202 7.925C92.9353 8.19167 92.5853 8.325 92.152 8.325C91.5686 8.325 91.1353 8.14167 90.852 7.775ZM88.377 21.325C88.377 20.925 88.1603 20.5917 87.727 20.325C87.2936 20.0583 86.7853 19.8417 86.202 19.675C85.6353 19.525 85.052 19.4083 84.452 19.325C83.852 19.2417 83.3936 19.175 83.077 19.125C82.7936 19.325 82.552 19.6417 82.352 20.075C82.1686 20.5083 82.077 20.9167 82.077 21.3C82.077 21.6333 82.1853 21.925 82.402 22.175C82.6186 22.425 82.8936 22.625 83.227 22.775C83.577 22.9417 83.9603 23.0583 84.377 23.125C84.8103 23.2083 85.2436 23.25 85.677 23.25C86.427 23.25 87.0603 23.0917 87.577 22.775C88.1103 22.4583 88.377 21.975 88.377 21.325ZM82.352 11C82.352 11.7667 82.5853 12.35 83.052 12.75C83.5186 13.1333 84.0936 13.325 84.777 13.325C85.4603 13.325 86.027 13.125 86.477 12.725C86.9436 12.325 87.177 11.75 87.177 11C87.177 10.25 86.9436 9.675 86.477 9.275C86.027 8.875 85.4603 8.675 84.777 8.675C84.0936 8.675 83.5186 8.875 83.052 9.275C82.5853 9.65833 82.352 10.2333 82.352 11ZM113.512 19.775V11.2H106.237V18.175C106.237 19.2417 105.67 19.775 104.537 19.775H101.812V3.6C101.812 3.36667 101.762 3.15 101.662 2.95C101.562 2.73333 101.387 2.575 101.137 2.475L106.237 0.974999V8.775H113.512V3.6C113.512 3.36667 113.462 3.15 113.362 2.95C113.262 2.73333 113.087 2.575 112.837 2.475L117.937 0.974999V18.175C117.937 19.2417 117.37 19.775 116.237 19.775H113.512ZM127.639 18.05C128.506 18.05 129.173 17.8167 129.639 17.35C130.106 16.8833 130.414 16.3 130.564 15.6L134.489 16.725C133.956 17.925 133.073 18.8417 131.839 19.475C130.623 20.125 129.223 20.45 127.639 20.45C126.606 20.45 125.623 20.2833 124.689 19.95C123.773 19.6333 122.956 19.1667 122.239 18.55C121.539 17.9333 120.981 17.1833 120.564 16.3C120.148 15.4167 119.939 14.4167 119.939 13.3C119.939 12.1833 120.139 11.1833 120.539 10.3C120.956 9.41667 121.506 8.66667 122.189 8.05C122.873 7.43333 123.656 6.95833 124.539 6.625C125.439 6.29167 126.373 6.125 127.339 6.125C128.406 6.125 129.381 6.28333 130.264 6.6C131.164 6.91667 131.931 7.36667 132.564 7.95C133.214 8.53333 133.714 9.24167 134.064 10.075C134.431 10.8917 134.614 11.8083 134.614 12.825V14.225H124.464C124.581 15.3917 124.898 16.325 125.414 17.025C125.948 17.7083 126.689 18.05 127.639 18.05ZM130.339 11.8C130.289 11.3333 130.198 10.9 130.064 10.5C129.931 10.1 129.748 9.75833 129.514 9.475C129.281 9.175 129.006 8.94167 128.689 8.775C128.373 8.60833 128.006 8.525 127.589 8.525C126.739 8.525 126.056 8.825 125.539 9.425C125.039 10.0083 124.706 10.8 124.539 11.8H130.339ZM140.926 5.85V7.925C141.559 7.39167 142.226 6.975 142.926 6.675C143.643 6.375 144.293 6.225 144.876 6.225C145.659 6.225 146.276 6.40833 146.726 6.775C147.193 7.125 147.426 7.61667 147.426 8.25C147.426 8.83333 147.243 9.325 146.876 9.725C146.526 10.1083 146.026 10.3 145.376 10.3C144.943 10.3 144.551 10.2583 144.201 10.175C143.868 10.0917 143.584 9.94167 143.351 9.725C143.451 9.50833 143.443 9.325 143.326 9.175C143.209 9.025 143.051 8.95 142.851 8.95C142.601 8.95 142.293 9.025 141.926 9.175C141.576 9.30833 141.243 9.50833 140.926 9.775V18.175C140.926 19.2417 140.359 19.775 139.226 19.775H136.626V8.475C136.626 8.24167 136.576 8.025 136.476 7.825C136.376 7.60833 136.201 7.45 135.951 7.35L140.926 5.85ZM155.594 8.525C155.077 8.525 154.619 8.65 154.219 8.9C153.819 9.13333 153.485 9.46667 153.219 9.9C152.952 10.3167 152.744 10.8167 152.594 11.4C152.46 11.9833 152.394 12.6167 152.394 13.3C152.394 13.9833 152.46 14.6167 152.594 15.2C152.727 15.7667 152.927 16.2667 153.194 16.7C153.477 17.1167 153.81 17.45 154.194 17.7C154.594 17.9333 155.06 18.05 155.594 18.05C156.11 18.05 156.569 17.9333 156.969 17.7C157.385 17.45 157.727 17.1167 157.994 16.7C158.26 16.2667 158.46 15.7583 158.594 15.175C158.744 14.5917 158.819 13.9667 158.819 13.3C158.819 12.6333 158.744 12.0083 158.594 11.425C158.46 10.8417 158.252 10.3417 157.969 9.925C157.702 9.49167 157.369 9.15 156.969 8.9C156.569 8.65 156.11 8.525 155.594 8.525ZM155.594 20.45C154.56 20.45 153.577 20.2833 152.644 19.95C151.727 19.6333 150.91 19.1667 150.194 18.55C149.494 17.9333 148.935 17.1833 148.519 16.3C148.102 15.4167 147.894 14.4167 147.894 13.3C147.894 12.1833 148.102 11.1833 148.519 10.3C148.935 9.41667 149.494 8.66667 150.194 8.05C150.91 7.43333 151.727 6.95833 152.644 6.625C153.577 6.29167 154.56 6.125 155.594 6.125C156.61 6.125 157.585 6.29167 158.519 6.625C159.452 6.95833 160.269 7.43333 160.969 8.05C161.685 8.66667 162.252 9.41667 162.669 10.3C163.085 11.1833 163.294 12.1833 163.294 13.3C163.294 14.4167 163.085 15.4167 162.669 16.3C162.252 17.1833 161.685 17.9333 160.969 18.55C160.269 19.1667 159.452 19.6333 158.519 19.95C157.585 20.2833 156.61 20.45 155.594 20.45ZM172.488 18.05C173.355 18.05 174.021 17.8167 174.488 17.35C174.955 16.8833 175.263 16.3 175.413 15.6L179.338 16.725C178.805 17.925 177.921 18.8417 176.688 19.475C175.471 20.125 174.071 20.45 172.488 20.45C171.455 20.45 170.471 20.2833 169.538 19.95C168.621 19.6333 167.805 19.1667 167.088 18.55C166.388 17.9333 165.83 17.1833 165.413 16.3C164.996 15.4167 164.788 14.4167 164.788 13.3C164.788 12.1833 164.988 11.1833 165.388 10.3C165.805 9.41667 166.355 8.66667 167.038 8.05C167.721 7.43333 168.505 6.95833 169.388 6.625C170.288 6.29167 171.221 6.125 172.188 6.125C173.255 6.125 174.23 6.28333 175.113 6.6C176.013 6.91667 176.78 7.36667 177.413 7.95C178.063 8.53333 178.563 9.24167 178.913 10.075C179.28 10.8917 179.463 11.8083 179.463 12.825V14.225H169.313C169.43 15.3917 169.746 16.325 170.263 17.025C170.796 17.7083 171.538 18.05 172.488 18.05ZM175.188 11.8C175.138 11.3333 175.046 10.9 174.913 10.5C174.78 10.1 174.596 9.75833 174.363 9.475C174.13 9.175 173.855 8.94167 173.538 8.775C173.221 8.60833 172.855 8.525 172.438 8.525C171.588 8.525 170.905 8.825 170.388 9.425C169.888 10.0083 169.555 10.8 169.388 11.8H175.188ZM188.075 6.125C188.975 6.125 189.783 6.21667 190.5 6.4C191.233 6.58333 191.85 6.825 192.35 7.125C192.866 7.425 193.266 7.775 193.55 8.175C193.833 8.55833 193.975 8.95 193.975 9.35C193.975 9.95 193.758 10.3833 193.325 10.65C192.908 10.9167 192.425 11.05 191.875 11.05C190.841 11.05 190.116 10.725 189.7 10.075C189.816 9.925 189.883 9.76667 189.9 9.6C189.916 9.41667 189.866 9.25 189.75 9.1C189.633 8.93333 189.441 8.8 189.175 8.7C188.925 8.58333 188.583 8.525 188.15 8.525C187.616 8.525 187.158 8.65833 186.775 8.925C186.391 9.19167 186.2 9.53333 186.2 9.95C186.2 10.4333 186.525 10.8667 187.175 11.25C187.841 11.6333 188.675 12.0083 189.675 12.375C190.391 12.6417 191.05 12.9 191.65 13.15C192.266 13.4 192.791 13.675 193.225 13.975C193.658 14.275 194 14.625 194.25 15.025C194.5 15.4083 194.625 15.8667 194.625 16.4C194.625 16.95 194.466 17.475 194.15 17.975C193.85 18.4583 193.4 18.8833 192.8 19.25C192.216 19.6167 191.508 19.9083 190.675 20.125C189.841 20.3417 188.9 20.45 187.85 20.45C185.883 20.45 184.341 20.125 183.225 19.475C182.125 18.8417 181.333 18.0167 180.85 17L184.5 15.8C184.8 16.55 185.258 17.1167 185.875 17.5C186.508 17.8667 187.183 18.05 187.9 18.05C188.65 18.05 189.225 17.9167 189.625 17.65C190.041 17.3833 190.25 17.0167 190.25 16.55C190.25 16.3 190.183 16.0917 190.05 15.925C189.933 15.7417 189.741 15.575 189.475 15.425C189.225 15.275 188.9 15.125 188.5 14.975C188.116 14.8083 187.658 14.6167 187.125 14.4C186.375 14.1 185.675 13.8083 185.025 13.525C184.391 13.225 183.833 12.9083 183.35 12.575C182.883 12.2417 182.508 11.8667 182.225 11.45C181.958 11.0333 181.825 10.5333 181.825 9.95C181.825 9.4 181.966 8.89167 182.25 8.425C182.55 7.95833 182.966 7.55833 183.5 7.225C184.05 6.875 184.708 6.60833 185.475 6.425C186.241 6.225 187.108 6.125 188.075 6.125Z" fill="white"/>
</svg>
