<svg width="106" height="19" viewBox="0 0 106 19" fill="none" xmlns="http://www.w3.org/2000/svg">
<path d="M17.44 5.76H12.38C12.3533 5.94667 12.3133 6.12667 12.26 6.3C12.22 6.46 12.1667 6.61333 12.1 6.76C12.82 6.77333 13.5067 6.83333 14.16 6.94C14.8267 7.03333 15.4133 7.18 15.92 7.38C16.44 7.58 16.8533 7.83333 17.16 8.14C17.4667 8.43333 17.62 8.79333 17.62 9.22C17.62 9.64667 17.46 10.0133 17.14 10.32C16.8333 10.6133 16.4067 10.7867 15.86 10.84C15.2867 10.8933 14.7667 10.84 14.3 10.68C13.8467 10.52 13.5267 10.2267 13.34 9.8C13.5133 9.58667 13.5867 9.37333 13.56 9.16C13.5333 8.94667 13.4267 8.76 13.24 8.6C13.0533 8.42667 12.7933 8.28667 12.46 8.18C12.14 8.06 11.7667 7.98667 11.34 7.96C10.8733 8.46667 10.2933 8.9 9.6 9.26C8.90667 9.60667 8.14667 9.89333 7.32 10.12C6.50667 10.3333 5.65333 10.4867 4.76 10.58C3.86667 10.6733 2.99333 10.72 2.14 10.72V10.32C2.88667 10.2 3.63333 10.0067 4.38 9.74C5.14 9.47333 5.82 9.14667 6.42 8.76C7.03333 8.37333 7.52667 7.93333 7.9 7.44C8.28667 6.94667 8.48 6.41333 8.48 5.84V5.76H4.52C4.18667 5.76 3.98667 5.92667 3.92 6.26L2.66 3.9H8.48V3.1C8.48 2.83333 8.41333 2.61333 8.28 2.44C8.14667 2.25333 7.94667 2.14 7.68 2.1L12.42 0.879999V3.9H17.44V5.76ZM19.46 13.68H12.22V17.48L8.68 18.88V13.68H2.9C2.51333 13.68 2.28667 13.8667 2.22 14.24L0.5 11.82H19.46V13.68ZM23.36 2.76H33.64V2.12L37.06 3.08V12.36H33.64V11.54C33.4 11.6467 33.1533 11.74 32.9 11.82C32.6467 11.9 32.3867 11.9733 32.12 12.04V14.98H39.46V16.84H22.9C22.5133 16.84 22.2867 17.0267 22.22 17.4L20.5 14.98H28.58V12.36H23.36V2.76ZM29.06 10.52C29.2733 10.52 29.56 10.52 29.92 10.52C30.28 10.52 30.6667 10.5133 31.08 10.5C31.5067 10.4867 31.94 10.4667 32.38 10.44C32.8333 10.4133 33.2533 10.3667 33.64 10.3V4.6H26.8V10.52H29.06ZM57.3855 18.22V9.48H54.8655C54.1855 11.0533 53.1255 12.3333 51.6855 13.32C50.2455 14.3067 48.4521 14.9533 46.3055 15.26V14.86C47.0788 14.4867 47.8188 14.0667 48.5255 13.6C49.2321 13.12 49.8521 12.5267 50.3855 11.82C50.9321 11.1133 51.3788 10.2533 51.7255 9.24C52.0721 8.21333 52.2721 6.96667 52.3255 5.5H48.6455C48.3121 5.5 48.1121 5.66667 48.0455 6L46.7855 3.56H52.3455V2.72L55.6855 3.68V5.1C55.6855 5.88667 55.6121 6.66667 55.4655 7.44H57.3855V3.88C57.3855 3.69333 57.3455 3.52 57.2655 3.36C57.1855 3.18667 57.0455 3.06 56.8455 2.98L60.5255 1.98V16.4C60.5255 17.04 60.3721 17.5 60.0655 17.78C59.7588 18.0733 59.2721 18.22 58.6055 18.22H57.3855ZM61.7255 18.7V3.28C61.7255 3.09333 61.6855 2.92 61.6055 2.76C61.5255 2.58667 61.3855 2.46 61.1855 2.38L64.8655 1.38V16.88C64.8655 17.52 64.7121 17.98 64.4055 18.26C64.0988 18.5533 63.6121 18.7 62.9455 18.7H61.7255ZM70.9055 4.54C70.9055 4.27333 70.8388 4.05333 70.7055 3.88C70.5721 3.69333 70.3721 3.58 70.1055 3.54L74.4455 2.32V4.96C74.4455 6.13333 74.2721 7.26 73.9255 8.34C74.4855 8.48667 75.0055 8.70667 75.4855 9C75.9788 9.28 76.4055 9.64667 76.7655 10.1C77.1388 10.5533 77.4321 11.08 77.6455 11.68C77.8588 12.28 77.9655 12.96 77.9655 13.72C77.9655 14.1733 77.8188 14.5667 77.5255 14.9C77.2321 15.2333 76.8188 15.4267 76.2855 15.48C75.7788 15.5467 75.2921 15.4867 74.8255 15.3C74.3588 15.1133 74.0321 14.7867 73.8455 14.32C74.1121 13.9067 74.2988 13.4733 74.4055 13.02C74.5121 12.5533 74.5455 12.1067 74.5055 11.68C74.4655 11.2533 74.3588 10.8533 74.1855 10.48C74.0121 10.0933 73.7788 9.76667 73.4855 9.5C72.8188 10.9533 71.8255 12.22 70.5055 13.3C69.1855 14.38 67.5521 15.18 65.6055 15.7V15.3C66.5921 14.7267 67.4255 14.04 68.1055 13.24C68.7855 12.4267 69.3321 11.56 69.7455 10.64C70.1588 9.72 70.4521 8.77333 70.6255 7.8C70.8121 6.82667 70.9055 5.88667 70.9055 4.98V4.54ZM79.8055 18.66V3.48C79.8055 3.29333 79.7655 3.12 79.6855 2.96C79.6055 2.78667 79.4655 2.66 79.2655 2.58L83.3455 1.38V16.84C83.3455 17.48 83.1921 17.94 82.8855 18.22C82.5788 18.5133 82.0921 18.66 81.4255 18.66H79.8055ZM99.4055 13.88V10.1C98.8855 10.34 98.2588 10.56 97.5255 10.76C96.7921 10.9467 95.9921 11.1067 95.1255 11.24C94.2721 11.36 93.3655 11.46 92.4055 11.54C91.4588 11.6067 90.5055 11.64 89.5455 11.64H87.0655L86.0655 9.8H88.6855L88.3455 5.6H91.3455L91.5655 9.8L93.3455 9.74L93.5655 5.6H96.5655L96.2455 9.54C96.8321 9.47333 97.3855 9.4 97.9055 9.32C98.4388 9.24 98.9388 9.14667 99.4055 9.04V3.48C99.4055 3.29333 99.3655 3.12 99.2855 2.96C99.2055 2.78667 99.0655 2.66 98.8655 2.58L102.945 1.38V6.48H105.645V8.32H102.945V12.06C102.945 12.7 102.792 13.1667 102.485 13.46C102.179 13.74 101.692 13.88 101.025 13.88H99.4055ZM89.2855 14.42C89.2855 14.1533 89.2188 13.9333 89.0855 13.76C88.9521 13.5733 88.7521 13.46 88.4855 13.42L92.8255 12.62V16.58H101.965C102.232 16.58 102.452 16.5133 102.625 16.38C102.812 16.2467 102.925 16.0467 102.965 15.78L103.965 18.42H89.2855V14.42ZM97.7455 4.8H88.1455C87.8121 4.8 87.6121 4.96667 87.5455 5.3L86.2855 2.96H97.7455V4.8Z" fill="white"/>
</svg>
