<svg width="129" height="23" viewBox="0 0 129 23" fill="none" xmlns="http://www.w3.org/2000/svg">
<path d="M21.2966 6.2H14.9716C14.9382 6.43333 14.8882 6.65833 14.8216 6.875C14.7716 7.075 14.7049 7.26667 14.6216 7.45C15.5216 7.46667 16.3799 7.54167 17.1966 7.675C18.0299 7.79167 18.7632 7.975 19.3966 8.225C20.0466 8.475 20.5632 8.79167 20.9466 9.175C21.3299 9.54167 21.5216 9.99167 21.5216 10.525C21.5216 11.0583 21.3216 11.5167 20.9216 11.9C20.5382 12.2667 20.0049 12.4833 19.3216 12.55C18.6049 12.6167 17.9549 12.55 17.3716 12.35C16.8049 12.15 16.4049 11.7833 16.1716 11.25C16.3882 10.9833 16.4799 10.7167 16.4466 10.45C16.4132 10.1833 16.2799 9.95 16.0466 9.75C15.8132 9.53333 15.4882 9.35833 15.0716 9.225C14.6716 9.075 14.2049 8.98333 13.6716 8.95C13.0882 9.58333 12.3632 10.125 11.4966 10.575C10.6299 11.0083 9.67992 11.3667 8.64658 11.65C7.62992 11.9167 6.56325 12.1083 5.44658 12.225C4.32992 12.3417 3.23825 12.4 2.17158 12.4V11.9C3.10492 11.75 4.03825 11.5083 4.97158 11.175C5.92158 10.8417 6.77158 10.4333 7.52158 9.95C8.28825 9.46667 8.90492 8.91667 9.37158 8.3C9.85492 7.68333 10.0966 7.01667 10.0966 6.3V6.2H5.14658C4.72992 6.2 4.47992 6.40833 4.39658 6.825L2.82158 3.875H10.0966V2.875C10.0966 2.54167 10.0132 2.26667 9.84658 2.05C9.67992 1.81667 9.42992 1.675 9.09658 1.625L15.0216 0.099999V3.875H21.2966V6.2ZM23.8216 16.1H14.7716V20.85L10.3466 22.6V16.1H3.12158C2.63825 16.1 2.35492 16.3333 2.27158 16.8L0.121582 13.775H23.8216V16.1ZM28.6966 2.45H41.5466V1.65L45.8216 2.85V14.45H41.5466V13.425C41.2466 13.5583 40.9382 13.675 40.6216 13.775C40.3049 13.875 39.9799 13.9667 39.6466 14.05V17.725H48.8216V20.05H28.1216C27.6382 20.05 27.3549 20.2833 27.2716 20.75L25.1216 17.725H35.2216V14.45H28.6966V2.45ZM35.8216 12.15C36.0882 12.15 36.4466 12.15 36.8966 12.15C37.3466 12.15 37.8299 12.1417 38.3466 12.125C38.8799 12.1083 39.4216 12.0833 39.9716 12.05C40.5382 12.0167 41.0632 11.9583 41.5466 11.875V4.75H32.9966V12.15H35.8216ZM60.3784 16.575H73.3784V14.85H61.2784L59.7284 12.7H77.9284V18.6H64.9284V20.425H76.7284C77.3618 20.425 77.7284 20.1583 77.8284 19.625L79.0784 22.575H60.3784V16.575ZM80.8284 11.1H60.1284C59.6451 11.1 59.3618 11.3333 59.2784 11.8L57.1284 8.775H72.5034C72.9868 8.39167 73.2868 7.81667 73.4034 7.05C73.5368 6.28333 73.6034 5.30833 73.6034 4.125V3.875H62.6284C62.2118 3.875 61.9618 4.08333 61.8784 4.5L60.3034 1.575H73.6034V0.524999L78.0284 1.725V3.325C78.0284 4.79167 77.7784 5.95833 77.2784 6.825C76.7784 7.675 76.0368 8.325 75.0534 8.775H80.8284V11.1ZM82.5534 14.15C83.5201 13.95 84.3868 13.6083 85.1534 13.125C85.9201 12.6417 86.5618 12.05 87.0784 11.35C87.6118 10.6333 88.0201 9.825 88.3034 8.925C88.5868 8.025 88.7284 7.06667 88.7284 6.05V4.675C88.7284 4.34167 88.6451 4.06667 88.4784 3.85C88.3118 3.61667 88.0618 3.475 87.7284 3.425L93.2784 1.9V4.5C93.2784 5.68333 93.0868 6.825 92.7034 7.925C93.2201 8.00833 93.7118 8.15 94.1784 8.35C94.6618 8.53333 95.1201 8.76667 95.5534 9.05C95.7368 8.56667 95.8701 8.08333 95.9534 7.6C96.0534 7.1 96.1034 6.58333 96.1034 6.05V4.3C96.1034 3.96667 96.0201 3.69167 95.8534 3.475C95.6868 3.24167 95.4368 3.1 95.1034 3.05L100.653 1.525V4.5C100.653 5.13333 100.595 5.75 100.478 6.35C100.362 6.95 100.187 7.54167 99.9534 8.125C100.57 8.19167 101.17 8.34167 101.753 8.575C102.337 8.80833 102.853 9.11667 103.303 9.5C103.77 9.88333 104.137 10.3333 104.403 10.85C104.687 11.3667 104.828 11.95 104.828 12.6C104.828 13.1667 104.645 13.6583 104.278 14.075C103.928 14.4917 103.412 14.7333 102.728 14.8C102.012 14.8667 101.387 14.775 100.853 14.525C100.337 14.275 99.9618 13.875 99.7284 13.325C100.012 12.9583 100.195 12.5917 100.278 12.225C100.362 11.8583 100.362 11.5167 100.278 11.2C100.212 10.8667 100.078 10.575 99.8784 10.325C99.6784 10.0583 99.4368 9.84167 99.1534 9.675C98.6868 10.3917 98.1284 11.0583 97.4784 11.675C96.8284 12.275 96.0868 12.8083 95.2534 13.275C94.4201 13.725 93.5034 14.0917 92.5034 14.375C91.5201 14.6583 90.4534 14.8333 89.3034 14.9V14.4C90.1534 14.2333 90.9451 13.9417 91.6784 13.525C92.4284 13.1083 93.0951 12.6 93.6784 12C93.6118 11.4667 93.4451 10.95 93.1784 10.45C92.9284 9.95 92.5784 9.55833 92.1284 9.275C91.3284 10.775 90.1201 12.0167 88.5034 13C86.9034 13.9667 84.9201 14.5167 82.5534 14.65V14.15ZM105.828 20.05H85.1284C84.6451 20.05 84.3618 20.2833 84.2784 20.75L82.1284 17.725H105.828V20.05ZM124.253 22.325V3.35C124.253 3.11667 124.203 2.9 124.103 2.7C124.003 2.48333 123.828 2.325 123.578 2.225L128.678 0.725V20.05C128.678 20.85 128.487 21.425 128.103 21.775C127.72 22.1417 127.112 22.325 126.278 22.325H124.253ZM107.128 17.825C108.345 17.525 109.512 17.05 110.628 16.4C111.745 15.75 112.737 14.925 113.603 13.925C114.47 12.9083 115.178 11.7167 115.728 10.35C116.278 8.96667 116.612 7.39167 116.728 5.625H110.303C109.887 5.625 109.637 5.83333 109.553 6.25L107.978 3.2H116.778V2.15L121.203 3.35V4.875C121.203 6.45833 120.895 8.01667 120.278 9.55C119.662 11.0833 118.753 12.475 117.553 13.725C116.37 14.9583 114.903 15.9917 113.153 16.825C111.403 17.6583 109.395 18.1583 107.128 18.325V17.825Z" fill="white"/>
</svg>
