<svg width="131" height="23" viewBox="0 0 131 23" fill="none" xmlns="http://www.w3.org/2000/svg">
<path d="M21.2966 6.2H14.9716C14.9382 6.43333 14.8882 6.65833 14.8216 6.875C14.7716 7.075 14.7049 7.26667 14.6216 7.45C15.5216 7.46667 16.3799 7.54167 17.1966 7.675C18.0299 7.79167 18.7632 7.975 19.3966 8.225C20.0466 8.475 20.5632 8.79167 20.9466 9.175C21.3299 9.54167 21.5216 9.99167 21.5216 10.525C21.5216 11.0583 21.3216 11.5167 20.9216 11.9C20.5382 12.2667 20.0049 12.4833 19.3216 12.55C18.6049 12.6167 17.9549 12.55 17.3716 12.35C16.8049 12.15 16.4049 11.7833 16.1716 11.25C16.3882 10.9833 16.4799 10.7167 16.4466 10.45C16.4132 10.1833 16.2799 9.95 16.0466 9.75C15.8132 9.53333 15.4882 9.35833 15.0716 9.225C14.6716 9.075 14.2049 8.98333 13.6716 8.95C13.0882 9.58333 12.3632 10.125 11.4966 10.575C10.6299 11.0083 9.67992 11.3667 8.64658 11.65C7.62992 11.9167 6.56325 12.1083 5.44658 12.225C4.32992 12.3417 3.23825 12.4 2.17158 12.4V11.9C3.10492 11.75 4.03825 11.5083 4.97158 11.175C5.92158 10.8417 6.77158 10.4333 7.52158 9.95C8.28825 9.46667 8.90492 8.91667 9.37158 8.3C9.85492 7.68333 10.0966 7.01667 10.0966 6.3V6.2H5.14658C4.72992 6.2 4.47992 6.40833 4.39658 6.825L2.82158 3.875H10.0966V2.875C10.0966 2.54167 10.0132 2.26667 9.84658 2.05C9.67992 1.81667 9.42992 1.675 9.09658 1.625L15.0216 0.099999V3.875H21.2966V6.2ZM23.8216 16.1H14.7716V20.85L10.3466 22.6V16.1H3.12158C2.63825 16.1 2.35492 16.3333 2.27158 16.8L0.121582 13.775H23.8216V16.1ZM28.6966 2.45H41.5466V1.65L45.8216 2.85V14.45H41.5466V13.425C41.2466 13.5583 40.9382 13.675 40.6216 13.775C40.3049 13.875 39.9799 13.9667 39.6466 14.05V17.725H48.8216V20.05H28.1216C27.6382 20.05 27.3549 20.2833 27.2716 20.75L25.1216 17.725H35.2216V14.45H28.6966V2.45ZM35.8216 12.15C36.0882 12.15 36.4466 12.15 36.8966 12.15C37.3466 12.15 37.8299 12.1417 38.3466 12.125C38.8799 12.1083 39.4216 12.0833 39.9716 12.05C40.5382 12.0167 41.0632 11.9583 41.5466 11.875V4.75H32.9966V12.15H35.8216ZM71.2284 21.775V10.85H68.0784C67.2284 12.8167 65.9034 14.4167 64.1034 15.65C62.3034 16.8833 60.0618 17.6917 57.3784 18.075V17.575C58.3451 17.1083 59.2701 16.5833 60.1534 16C61.0368 15.4 61.8118 14.6583 62.4784 13.775C63.1618 12.8917 63.7201 11.8167 64.1534 10.55C64.5868 9.26667 64.8368 7.70833 64.9034 5.875H60.3034C59.8868 5.875 59.6368 6.08333 59.5534 6.5L57.9784 3.45H64.9284V2.4L69.1034 3.6V5.375C69.1034 6.35833 69.0118 7.33333 68.8284 8.3H71.2284V3.85C71.2284 3.61667 71.1784 3.4 71.0784 3.2C70.9784 2.98333 70.8034 2.825 70.5534 2.725L75.1534 1.475V19.5C75.1534 20.3 74.9618 20.875 74.5784 21.225C74.1951 21.5917 73.5868 21.775 72.7534 21.775H71.2284ZM76.6534 22.375V3.1C76.6534 2.86667 76.6034 2.65 76.5034 2.45C76.4034 2.23333 76.2284 2.075 75.9784 1.975L80.5784 0.725V20.1C80.5784 20.9 80.3868 21.475 80.0034 21.825C79.6201 22.1917 79.0118 22.375 78.1784 22.375H76.6534ZM88.1284 4.675C88.1284 4.34167 88.0451 4.06667 87.8784 3.85C87.7118 3.61667 87.4618 3.475 87.1284 3.425L92.5534 1.9V5.2C92.5534 6.66667 92.3368 8.075 91.9034 9.425C92.6034 9.60833 93.2534 9.88333 93.8534 10.25C94.4701 10.6 95.0034 11.0583 95.4534 11.625C95.9201 12.1917 96.2868 12.85 96.5534 13.6C96.8201 14.35 96.9534 15.2 96.9534 16.15C96.9534 16.7167 96.7701 17.2083 96.4034 17.625C96.0368 18.0417 95.5201 18.2833 94.8534 18.35C94.2201 18.4333 93.6118 18.3583 93.0284 18.125C92.4451 17.8917 92.0368 17.4833 91.8034 16.9C92.1368 16.3833 92.3701 15.8417 92.5034 15.275C92.6368 14.6917 92.6784 14.1333 92.6284 13.6C92.5784 13.0667 92.4451 12.5667 92.2284 12.1C92.0118 11.6167 91.7201 11.2083 91.3534 10.875C90.5201 12.6917 89.2784 14.275 87.6284 15.625C85.9784 16.975 83.9368 17.975 81.5034 18.625V18.125C82.7368 17.4083 83.7784 16.55 84.6284 15.55C85.4784 14.5333 86.1618 13.45 86.6784 12.3C87.1951 11.15 87.5618 9.96667 87.7784 8.75C88.0118 7.53333 88.1284 6.35833 88.1284 5.225V4.675ZM99.2534 22.325V3.35C99.2534 3.11667 99.2034 2.9 99.1034 2.7C99.0034 2.48333 98.8284 2.325 98.5784 2.225L103.678 0.725V20.05C103.678 20.85 103.487 21.425 103.103 21.775C102.72 22.1417 102.112 22.325 101.278 22.325H99.2534ZM110.378 16.575H123.378V14.85H111.278L109.728 12.7H127.928V18.6H114.928V20.425H126.728C127.362 20.425 127.728 20.1583 127.828 19.625L129.078 22.575H110.378V16.575ZM130.828 11.1H110.128C109.645 11.1 109.362 11.3333 109.278 11.8L107.128 8.775H122.503C122.987 8.39167 123.287 7.81667 123.403 7.05C123.537 6.28333 123.603 5.30833 123.603 4.125V3.875H112.628C112.212 3.875 111.962 4.08333 111.878 4.5L110.303 1.575H123.603V0.524999L128.028 1.725V3.325C128.028 4.79167 127.778 5.95833 127.278 6.825C126.778 7.675 126.037 8.325 125.053 8.775H130.828V11.1Z" fill="white"/>
</svg>
