<svg width="40" height="40" viewBox="0 0 40 40" fill="none" xmlns="http://www.w3.org/2000/svg">
<path d="M19.2343 13.549C19.5467 13.2597 20.0533 13.2597 20.3657 13.549L26.7657 19.4749C27.0781 19.7642 27.0781 20.2332 26.7657 20.5225L20.3657 26.4484C20.0533 26.7377 19.5467 26.7377 19.2343 26.4484C18.9219 26.1591 18.9219 25.6901 19.2343 25.4008L25.0686 19.9987L19.2343 14.5966C18.9219 14.3073 18.9219 13.8383 19.2343 13.549Z" fill="#9A9A9A"/>
<path d="M13.2343 13.549C13.5467 13.2597 14.0533 13.2597 14.3657 13.549L20.7657 19.4749C21.0781 19.7642 21.0781 20.2332 20.7657 20.5225L14.3657 26.4484C14.0533 26.7377 13.5467 26.7377 13.2343 26.4484C12.9219 26.1591 12.9219 25.6901 13.2343 25.4008L19.0686 19.9987L13.2343 14.5966C12.9219 14.3073 12.9219 13.8383 13.2343 13.549Z" fill="#9A9A9A"/>
</svg>
